<?xml version="1.0" encoding="UTF-8" standalone="no"?>
<!-- Created with Inkscape (http://www.inkscape.org/) -->

<svg
   width="128"
   height="128"
   viewBox="0 0 33.866666 33.866666"
   version="1.1"
   id="svg1"
   xml:space="preserve"
   inkscape:version="1.4.2 (f4327f4, 2025-05-13)"
   sodipodi:docname="icon.svg"
   inkscape:export-filename="icon16.png"
   inkscape:export-xdpi="12"
   inkscape:export-ydpi="12"
   xmlns:inkscape="http://www.inkscape.org/namespaces/inkscape"
   xmlns:sodipodi="http://sodipodi.sourceforge.net/DTD/sodipodi-0.dtd"
   xmlns="http://www.w3.org/2000/svg"
   xmlns:svg="http://www.w3.org/2000/svg"><sodipodi:namedview
     id="namedview1"
     pagecolor="#ffffff"
     bordercolor="#000000"
     borderopacity="0.25"
     inkscape:showpageshadow="2"
     inkscape:pageopacity="0.0"
     inkscape:pagecheckerboard="0"
     inkscape:deskcolor="#d1d1d1"
     inkscape:document-units="mm"
     inkscape:zoom="2.9540685"
     inkscape:cx="38.421588"
     inkscape:cy="77.012433"
     inkscape:window-width="1920"
     inkscape:window-height="1008"
     inkscape:window-x="-9"
     inkscape:window-y="-9"
     inkscape:window-maximized="1"
     inkscape:current-layer="svg1" /><defs
     id="defs1" /><g
     id="g1"
     transform="matrix(1.1469918,0,0,1.1469918,-4.2486492,-3.885932)"><path
       d="m 18.913104,30.1625 c -0.874081,0 -1.704458,-0.167577 -2.491143,-0.502727 -0.786671,-0.335151 -1.48593,-0.802568 -2.097788,-1.402288 -0.664301,0.229333 -1.354822,0.343938 -2.071566,0.343938 -1.171265,0 -2.2551248,-0.291031 -3.2515767,-0.873126 C 8.004579,27.146238 7.2004275,26.352469 6.5885745,25.347052 5.9941666,24.341635 5.6970103,23.221569 5.6970103,21.986851 c 0,-0.511515 0.069922,-1.067157 0.2098078,-1.666876 C 5.2075604,19.667338 4.6656307,18.917684 4.281037,18.071019 3.8964371,17.206717 3.7041667,16.307136 3.7041667,15.372273 c 0,-0.952497 0.2010391,-1.869719 0.6031125,-2.751663 C 4.7093574,11.738671 5.2687666,10.9802 5.9855104,10.3452 6.71974,9.692559 7.5675963,9.242771 8.5290837,8.995826 8.7213524,7.9904092 9.123432,7.0908286 9.735313,6.2970782 c 0.629338,-0.8113867 1.398525,-1.4463859 2.307569,-1.9049973 0.90904,-0.4586055 1.879266,-0.6879142 2.910682,-0.6879142 0.87408,0 1.704455,0.1675754 2.49114,0.5027265 0.786673,0.3351512 1.485932,0.8025685 2.097791,1.402289 0.664301,-0.2293331 1.35482,-0.3439389 2.071565,-0.3439389 1.171266,0 2.255125,0.2910298 3.251577,0.87312 0.996451,0.5820598 1.791864,1.3758345 2.386235,2.3812512 0.611853,1.0054105 0.917785,2.1254825 0.917785,3.3602015 0,0.511514 -0.06992,1.067151 -0.20981,1.66687 0.699259,0.652641 1.24119,1.411113 1.625783,2.275416 0.3846,0.846666 0.57687,1.737426 0.57687,2.672286 0,0.952503 -0.20104,1.869718 -0.603113,2.751663 -0.402079,0.881945 -0.970227,1.649233 -1.704455,2.301875 -0.716746,0.634999 -1.555862,1.07597 -2.517348,1.322913 -0.19227,1.005417 -0.603113,1.904999 -1.232449,2.698749 -0.611858,0.811387 -1.372306,1.446387 -2.281351,1.904998 -0.909039,0.458605 -1.879265,0.687914 -2.91068,0.687914 z m -6.476942,-3.307286 c 0.87408,0 1.634528,-0.185212 2.281344,-0.555636 l 4.929826,-2.857499 c 0.174792,-0.12346 0.262247,-0.29103 0.262247,-0.502728 v -2.275414 l -6.345831,3.677704 c -0.384599,0.229333 -0.769187,0.229333 -1.153787,0 L 7.4539337,21.457688 c 0,0.05272 -0.00906,0.114663 -0.026438,0.18521 0,0.07055 0,0.176364 0,0.317517 0,0.899581 0.2098094,1.728608 0.6293375,2.487081 0.4370375,0.74083 1.0401501,1.322914 1.8093439,1.746247 0.7691879,0.440967 1.6257809,0.661459 2.5697899,0.661459 z m 0.262247,-4.312704 c 0.104875,0.05274 0.201039,0.07939 0.288434,0.07939 0.08739,0 0.174791,-0.02666 0.262245,-0.07939 l 1.966681,-1.137708 -6.3195897,-3.704164 c -0.3845988,-0.229333 -0.576869,-0.573273 -0.576869,-1.03187 v -5.741453 c -0.8740797,0.388059 -1.5733453,0.98778 -2.0977905,1.799167 -0.5244313,0.79375 -0.7866719,1.675695 -0.7866719,2.645827 0,0.864307 0.2185187,1.69333 0.6555609,2.487081 0.4370375,0.793749 1.0051921,1.39347 1.7044515,1.799167 z m 6.214719,5.873743 c 0.926523,0 1.765638,-0.211697 2.517348,-0.634999 0.751707,-0.423332 1.346081,-1.005416 1.783116,-1.746253 0.437038,-0.740829 0.655563,-1.569857 0.655563,-2.487075 v -5.714991 c 0,-0.211697 -0.08739,-0.370425 -0.262247,-0.476242 l -1.992902,-1.164161 v 7.381862 c 0,0.458604 -0.192271,0.802568 -0.576871,1.031877 l -4.956045,2.883954 c 0.856612,0.617356 1.800616,0.926041 2.832032,0.926041 z m 0.996451,-9.683737 v -3.598329 l -2.96313,-1.693331 -2.989367,1.693331 v 3.598329 l 2.989367,1.693331 z m -7.656972,-8.440201 c 0,-0.458605 0.19227,-0.802568 0.57687,-1.031871 L 17.785523,6.3764902 C 16.92891,5.7591275 15.984907,5.4504491 14.953491,5.4504491 c -0.926523,0 -1.765638,0.2116966 -2.517348,0.634999 C 11.684436,6.508781 11.090061,7.090865 10.653026,7.8316943 10.233468,8.5725297 10.023689,9.401553 10.023689,10.318775 v 5.688532 c 0,0.211696 0.08739,0.379212 0.262246,0.502726 l 1.966678,1.164169 z m 13.32098,12.647068 c 0.874081,-0.388061 1.564599,-0.987775 2.071565,-1.799162 0.524433,-0.811386 0.786674,-1.69333 0.786674,-2.645833 0,-0.864302 -0.21852,-1.69333 -0.655563,-2.487081 -0.437037,-0.793744 -1.005191,-1.393464 -1.70445,-1.799161 l -4.903584,-2.857498 c -0.104875,-0.07055 -0.201039,-0.09703 -0.288434,-0.07939 -0.08739,0 -0.174791,0.02667 -0.262247,0.07939 l -1.966678,1.111253 6.345812,3.730618 c 0.19233,0.105819 0.332162,0.246969 0.419557,0.423333 0.104875,0.158727 0.157311,0.352787 0.157311,0.58206 z M 20.302888,9.498571 c 0.384601,-0.24697 0.769188,-0.24697 1.153788,0 l 4.982246,2.936869 c 0,-0.123455 0,-0.282243 0,-0.476242 0,-0.846666 -0.209809,-1.649234 -0.629337,-2.407706 -0.40208,-0.776108 -0.987706,-1.3934709 -1.7569,-1.8520824 -0.751703,-0.4586054 -1.625784,-0.6879141 -2.622234,-0.6879141 -0.874079,0 -1.634528,0.1852117 -2.281344,0.5556356 L 14.219281,10.42463 c -0.174791,0.123454 -0.262247,0.29103 -0.262247,0.502726 v 2.275415 z"
       fill="#0d0d0d"
       id="path1-4"
       style="stroke-width:1.59637" /><path
       d="m 18.298148,32.598212 c -0.0048,0 -0.0096,0 -0.01396,0 -0.625747,-0.0043 -1.219245,-0.278698 -1.627425,-0.752341 l -6.487558,-7.534482 c -0.7807395,-0.906372 -0.6786947,-2.274352 0.228158,-3.055093 0.906853,-0.780259 2.274352,-0.678214 3.055092,0.228157 l 4.867354,5.652908 11.121942,-12.579934 c 0.791812,-0.896263 2.160755,-0.980498 3.0575,-0.188206 0.896263,0.792293 0.980498,2.161236 0.188206,3.0575 L 19.921723,31.86705 c -0.412031,0.464979 -1.003122,0.731162 -1.623575,0.731162 z"
       style="opacity:1;fill:#28c937;fill-opacity:1;fill-rule:nonzero;stroke:none;stroke-width:0.481344;stroke-linecap:butt;stroke-linejoin:miter;stroke-miterlimit:10;stroke-dasharray:none"
       stroke-linecap="round"
       id="path1" /></g></svg>
